:FULLY-SPECIFIED
:FORCE-ALL-JOINTS-BE-3DOF
:DEGREES
170
root 6.25754 16.0289 -25.6678 3.47945 22.4809 1.36243
lfemur -10.7874 14.2238 -4.25036
ltibia 24.4973 -0 0
lfoot -9.7756 -1.54034 0.641089
ltoes 47.0665 -0 0
rfemur -36.101 -19.1477 -0.449704
rtibia 81.1803 -0 0
rfoot 3.57511 -3.55102 0.496605
rtoes 23.387 -0 0
lowerback 1.65827 -5.54138 -2.8136
upperback 0.498058 -7.35341 -3.06629
thorax -0.174432 -3.71891 -1.22152
lowerneck -11.6161 -4.28967 -0.336906
upperneck 2.73594 -6.00536 5.36474
head 3.11541 -2.76088 1.44047
lclavicle -4.32357e-014 -1.90833e-014 0
lhumerus -47.1646 -41.8959 108.734
lradius 51.5133 -0 0
lwrist 15.6467 0 0
lhand 38.3246 27.7361 -0.222334
lfingers 7.12502 -0 0
lthumb 61.1505 41.4594 0.0167126
rclavicle -4.32357e-014 -1.90833e-014 0
rhumerus -60.3151 7.35887 -80.3665
rradius 111.846 -0 0
rwrist -10.945 0 0
rhand 34.3639 -2.28844 -1.05139
rfingers 7.12502 -0 0
rthumb 57.7054 -20.1577 -1.34954
171
root 6.20522 16.0112 -25.6466 3.71007 21.7761 1.58475
lfemur -10.078 12.6425 -3.47934
ltibia 23.5126 -0 0
lfoot -10.0623 -3.25064 0.664597
ltoes 47.6578 -0 0
rfemur -34.6051 -18.4636 -1.26882
rtibia 78.3919 -0 0
rfoot 1.6212 -3.66981 0.487568
rtoes 25.1422 -0 0
lowerback 1.25608 -5.32002 -2.71224
upperback 0.430707 -7.04082 -3.32395
thorax -0.0593862 -3.5641 -1.58098
lowerneck -11.6934 -4.26937 -0.19537
upperneck 2.80958 -6.00315 5.3622
head 3.14923 -2.7552 1.41352
lclavicle -4.32357e-014 -1.90833e-014 0
lhumerus -47.6025 -41.9086 109.006
lradius 51.685 -0 0
lwrist 16.003 0 0
lhand 38.5322 28.2664 -0.221237
lfingers 7.12502 -0 0
lthumb 61.3271 41.7974 0.0190988
rclavicle -4.32357e-014 -1.90833e-014 0
rhumerus -60.7215 9.87093 -80.8638
rradius 112.79 -0 0
rwrist -10.8305 0 0
rhand 34.1617 -2.36527 -1.10435
rfingers 7.12502 -0 0
rthumb 57.5297 -20.4351 -1.40767
172
root 6.1529 15.9936 -25.6255 3.93213 21.0539 1.80229
lfemur -9.38718 11.0425 -2.73354
ltibia 22.5269 -0 0
lfoot -10.3585 -4.97348 0.679326
ltoes 48.2409 -0 0
rfemur -33.1366 -17.7598 -2.06019
rtibia 75.5672 -0 0
rfoot -0.348977 -3.77084 0.472418
rtoes 26.8943 -0 0
lowerback 0.859437 -5.09473 -2.61146
upperback 0.36388 -6.72424 -3.58059
thorax 0.0535988 -3.40651 -1.93954
lowerneck -11.7713 -4.24478 -0.0504699
upperneck 2.88278 -5.99568 5.35568
head 3.18277 -2.74703 1.385
lclavicle -4.32357e-014 -1.90833e-014 0
lhumerus -48.0395 -41.9075 109.271
lradius 51.8584 -0 0
lwrist 16.3638 0 0
lhand 38.7167 28.7854 -0.218414
lfingers 7.12502 -0 0
lthumb 61.4823 42.1347 0.0211749
rclavicle -4.32357e-014 -1.90833e-014 0
rhumerus -61.1218 12.3901 -81.3467
rradius 113.704 -0 0
rwrist -10.7072 0 0
rhand 33.9186 -2.46098 -1.14748
rfingers 7.12502 -0 0
rthumb 57.3167 -20.7414 -1.45324
173
root 6.10058 15.9759 -25.6043 4.14555 20.3184 2.01389
lfemur -8.7184 9.43519 -2.01497
ltibia 21.5466 -0 0
lfoot -10.6627 -6.69703 0.684788
ltoes 48.8126 -0 0
rfemur -31.7021 -17.0421 -2.82003
rtibia 72.7258 -0 0
rfoot -2.32449 -3.85313 0.45173
rtoes 28.6375 -0 0
lowerback 0.469927 -4.86718 -2.51169
upperback 0.297692 -6.40595 -3.83484
thorax 0.163972 -3.24729 -2.29532
lowerneck -11.8489 -4.21573 0.0971094
upperneck 2.9552 -5.9826 5.34522
head 3.21584 -2.73623 1.35507
lclavicle -4.32357e-014 -1.90833e-014 0
lhumerus -48.4744 -41.8946 109.53
lradius 52.0327 -0 0
lwrist 16.7278 0 0
lhand 38.8778 29.2909 -0.213876
lfingers 7.12502 -0 0
lthumb 61.6161 42.4697 0.0229192
rclavicle -4.32357e-014 -1.90833e-014 0
rhumerus -61.5106 14.902 -81.8099
rradius 114.586 -0 0
rwrist -10.5758 0 0
rhand 33.6337 -2.57603 -1.17968
rfingers 7.12502 -0 0
rthumb 57.0653 -21.0757 -1.48509
174
root 6.04825 15.9582 -25.5832 4.35036 19.574 2.21847
lfemur -8.07446 7.83194 -1.32512
ltibia 20.5779 -0 0
lfoot -10.9734 -8.40945 0.680695
ltoes 49.3696 -0 0
rfemur -30.3082 -16.3168 -3.5451
rtibia 69.8869 -0 0
rfoot -4.29443 -3.91572 0.426182
rtoes 30.3655 -0 0
lowerback 0.0891207 -4.63902 -2.41331
upperback 0.232297 -6.08822 -4.08531
thorax 0.271209 -3.08759 -2.64646
lowerneck -11.9259 -4.18207 0.246683
upperneck 3.02648 -5.96358 5.33086
head 3.24826 -2.72264 1.3239
lclavicle -4.32357e-014 -1.90833e-014 0
lhumerus -48.9058 -41.8721 109.783
lradius 52.2074 -0 0
lwrist 17.0938 0 0
lhand 39.0152 29.7804 -0.207627
lfingers 7.12502 -0 0
lthumb 61.7281 42.8013 0.0243172
rclavicle -4.32357e-014 -1.90833e-014 0
rhumerus -61.8815 17.3925 -82.2469
rradius 115.431 -0 0
rwrist -10.4371 0 0
rhand 33.306 -2.71091 -1.19986
rfingers 7.12502 -0 0
rthumb 56.7745 -21.4373 -1.50214
175
root 5.99593 15.9405 -25.562 4.54663 18.8251 2.41501
lfemur -7.45778 6.24432 -0.665078
ltibia 19.6272 -0 0
lfoot -11.2891 -10.0989 0.666971
ltoes 49.9084 -0 0
rfemur -28.961 -15.5903 -4.2327
rtibia 67.0702 -0 0
rfoot -6.24786 -3.95771 0.39653
rtoes 32.0724 -0 0
lowerback -0.281423 -4.41191 -2.31668
upperback 0.167881 -5.77329 -4.33063
thorax 0.374807 -2.92857 -2.99109
lowerneck -12.0016 -4.14363 0.397567
upperneck 3.09628 -5.93829 5.31264
head 3.27984 -2.70614 1.29165
lclavicle -4.32357e-014 -1.90833e-014 0
lhumerus -49.3325 -41.842 110.03
lradius 52.3818 -0 0
lwrist 17.4605 0 0
lhand 39.1285 30.2516 -0.199674
lfingers 7.12502 -0 0
lthumb 61.8181 43.1279 0.0253584
rclavicle -4.32357e-014 -1.90833e-014 0
rhumerus -62.2273 19.8475 -82.6504
rradius 116.234 -0 0
rwrist -10.2921 0 0
rhand 32.9346 -2.86615 -1.20701
rfingers 7.12502 -0 0
rthumb 56.4434 -21.8254 -1.50339
176
root 5.94361 15.9229 -25.5409 4.73454 18.076 2.60251
lfemur -6.87052 4.68395 -0.035545
ltibia 18.7007 -0 0
lfoot -11.6084 -11.7535 0.643753
ltoes 50.4256 -0 0
rfemur -27.6662 -14.8694 -4.88063
rtibia 64.295 -0 0
rfoot -8.17389 -3.9782 0.363588
rtoes 33.7521 -0 0
lowerback -0.640155 -4.18755 -2.22211
upperback 0.104664 -5.46342 -4.56941
thorax 0.474291 -2.77142 -3.32736
lowerneck -12.0754 -4.10026 0.549077
upperneck 3.16424 -5.90639 5.29061
head 3.3104 -2.68659 1.25848
lclavicle -4.32357e-014 -1.90833e-014 0
lhumerus -49.7534 -41.8064 110.271
lradius 52.5553 -0 0
lwrist 17.8267 0 0
lhand 39.2172 30.7021 -0.190029
lfingers 7.12502 -0 0
lthumb 61.886 43.4482 0.0260341
rclavicle -4.32357e-014 -1.90833e-014 0
rhumerus -62.5393 22.253 -83.0117
rradius 116.993 -0 0
rwrist -10.1414 0 0
rhand 32.5185 -3.04235 -1.20018
rfingers 7.12502 -0 0
rthumb 56.0707 -22.2395 -1.48786
177
root 5.89129 15.9052 -25.5197 4.9143 17.3311 2.78004
lfemur -6.31458 3.16254 0.56306
ltibia 17.8047 -0 0
lfoot -11.93 -13.3615 0.611389
ltoes 50.9179 -0 0
rfemur -26.4293 -14.1609 -5.48711
rtibia 61.5809 -0 0
rfoot -10.0616 -3.97635 0.328208
rtoes 35.3985 -0 0
lowerback -0.985536 -3.96762 -2.12988
upperback 0.0428983 -5.16087 -4.80027
thorax 0.569207 -2.61733 -3.65342
lowerneck -12.1468 -4.05183 0.70053
upperneck 3.23001 -5.86753 5.2648
head 3.33976 -2.66383 1.22455
lclavicle -4.32357e-014 -1.90833e-014 0
lhumerus -50.1673 -41.7673 110.507
lradius 52.7274 -0 0
lwrist 18.1911 0 0
lhand 39.2811 31.1295 -0.178717
lfingers 7.12502 -0 0
lthumb 61.9315 43.761 0.0263342
rclavicle -4.32357e-014 -1.90833e-014 0
rhumerus -62.8075 24.5951 -83.3208
rradius 117.703 -0 0
rwrist -9.98604 0 0
rhand 32.0568 -3.24011 -1.17846
rfingers 7.12502 -0 0
rthumb 55.6554 -22.6789 -1.45465
178
root 5.83896 15.8875 -25.4986 5.0862 16.5946 2.9467
lfemur -5.79167 1.69186 1.13055
ltibia 16.9456 -0 0
lfoot -12.2524 -14.9109 0.570439
ltoes 51.382 -0 0
rfemur -25.2555 -13.4718 -6.0508
rtibia 58.9472 -0 0
rfoot -11.9001 -3.95139 0.29125
rtoes 37.0056 -0 0
lowerback -1.31604 -3.75381 -2.04026
upperback -0.0171344 -4.86789 -5.02182
thorax 0.659124 -2.46749 -3.96745
lowerneck -12.2152 -3.99819 0.851246
upperneck 3.29322 -5.8214 5.23526
head 3.36773 -2.63774 1.19003
lclavicle -4.32357e-014 -1.90833e-014 0
lhumerus -50.5733 -41.7268 110.738
lradius 52.8974 -0 0
lwrist 18.5524 0 0
lhand 39.3197 31.5315 -0.165779
lfingers 7.12502 -0 0
lthumb 61.9545 44.0647 0.0262449
rclavicle -4.32357e-014 -1.90833e-014 0
rhumerus -63.0204 26.86 -83.5662
rradius 118.36 -0 0
rwrist -9.82671 0 0
rhand 31.5484 -3.46011 -1.14103
rfingers 7.12502 -0 0
rthumb 55.1963 -23.143 -1.40294
179
root 5.78664 15.8698 -25.4774 5.25056 15.8709 3.10162
lfemur -5.3034 0.283695 1.66691
ltibia 16.1296 -0 0
lfoot -12.5743 -16.39 0.521667
ltoes 51.8145 -0 0
rfemur -24.15 -12.8093 -6.57067
rtibia 56.4134 -0 0
rfoot -13.6785 -3.90255 0.253564
rtoes 38.5673 -0 0
lowerback -1.63013 -3.54783 -1.95347
upperback -0.0751247 -4.58671 -5.23265
thorax 0.743631 -2.32312 -4.26759
lowerneck -12.2801 -3.9392 1.00054
upperneck 3.35354 -5.76765 5.20203
head 3.39413 -2.60818 1.15506
lclavicle -4.32357e-014 -1.90833e-014 0
lhumerus -50.9702 -41.687 110.965
lradius 53.0647 -0 0
lwrist 18.9094 0 0
lhand 39.3326 31.9056 -0.151282
lfingers 7.12502 -0 0
lthumb 61.9546 44.3581 0.0257458
rclavicle -4.32357e-014 -1.90833e-014 0
rhumerus -63.1654 29.0338 -83.7349
rradius 118.961 -0 0
rwrist -9.66426 0 0
rhand 30.9924 -3.70309 -1.08711
rfingers 7.12502 -0 0
rthumb 54.6922 -23.6314 -1.33196
180
root 5.73432 15.8521 -25.4563 5.40777 15.1645 3.24393
lfemur -4.85132 -1.05012 2.17225
ltibia 15.3631 -0 0
lfoot -12.8945 -17.787 0.466033
ltoes 52.2119 -0 0
rfemur -23.1176 -12.1805 -7.04599
rtibia 53.9989 -0 0
rfoot -15.3859 -3.82913 0.215953
rtoes 40.0776 -0 0
lowerback -1.92631 -3.35139 -1.86971
upperback -0.130739 -4.31957 -5.43137
thorax 0.822337 -2.18542 -4.55203
lowerneck -12.3408 -3.87474 1.14774
upperneck 3.41059 -5.70595 5.16514
head 3.41877 -2.575 1.11982
lclavicle -4.32357e-014 -1.90833e-014 0
lhumerus -51.3571 -41.65 111.188
lradius 53.2287 -0 0
lwrist 19.2609 0 0
lhand 39.3195 32.2494 -0.135322
lfingers 7.12502 -0 0
lthumb 61.9318 44.6398 0.0248066
rclavicle -4.32357e-014 -1.90833e-014 0
rhumerus -63.2279 31.1024 -83.8126
rradius 119.5 -0 0
rwrist -9.49952 0 0
rhand 30.3877 -3.96984 -1.01604
rfingers 7.12502 -0 0
rthumb 54.1418 -24.1436 -1.24099
